<?xml version="1.0" encoding="iso-8859-1"?><svg viewBox="0 0 443.52 443.52" xmlns="http://www.w3.org/2000/svg" xmlns:xlink="http://www.w3.org/1999/xlink"><style>:root>svg{display:none}:root>svg:target{display:block}</style><svg viewBox="0 0 443.52 443.52" id="back" xmlns="http://www.w3.org/2000/svg"><path d="M143.492 221.863L336.226 29.129c6.663-6.664 6.663-17.468 0-24.132-6.665-6.662-17.468-6.662-24.132 0l-204.8 204.8c-6.662 6.664-6.662 17.468 0 24.132l204.8 204.8c6.78 6.548 17.584 6.36 24.132-.42 6.387-6.614 6.387-17.099 0-23.712L143.492 221.863z"/></svg><svg viewBox="0 0 35 35" id="calendar" xmlns="http://www.w3.org/2000/svg"><path d="M26.387 15.723a1.367 1.367 0 100-2.735 1.367 1.367 0 000 2.735z"/><path d="M29.531 2.734h-1.777V1.367a1.367 1.367 0 10-2.735 0v1.367H18.8V1.367a1.367 1.367 0 10-2.735 0v1.367H9.912V1.367a1.367 1.367 0 10-2.734 0v1.367h-1.71A5.475 5.475 0 000 8.204V29.53A5.475 5.475 0 005.469 35h10.459a1.367 1.367 0 100-2.734H5.468a2.737 2.737 0 01-2.734-2.735V8.203A2.737 2.737 0 015.47 5.47h1.709v1.367a1.367 1.367 0 102.734 0V5.469h6.152v1.367a1.367 1.367 0 102.735 0V5.469h6.22v1.367a1.367 1.367 0 102.735 0V5.469h1.777a2.737 2.737 0 012.735 2.734v7.793a1.367 1.367 0 102.734 0V8.203a5.475 5.475 0 00-5.469-5.469z"/><path d="M26.729 18.457c-4.561 0-8.272 3.71-8.272 8.271 0 4.561 3.71 8.272 8.271 8.272C31.29 35 35 31.29 35 26.729c0-4.561-3.71-8.272-8.271-8.272zm0 13.809a5.543 5.543 0 01-5.538-5.537 5.543 5.543 0 015.538-5.538 5.543 5.543 0 015.537 5.538 5.543 5.543 0 01-5.537 5.537z"/><path d="M28.71 25.361h-.614v-1.435a1.367 1.367 0 10-2.735 0v2.803c0 .755.612 1.367 1.367 1.367h1.983a1.367 1.367 0 100-2.735zM20.44 15.723a1.367 1.367 0 100-2.735 1.367 1.367 0 000 2.735zM14.492 21.67a1.367 1.367 0 100-2.734 1.367 1.367 0 000 2.734zM8.545 15.723a1.367 1.367 0 100-2.735 1.367 1.367 0 000 2.735zM8.545 21.67a1.367 1.367 0 100-2.734 1.367 1.367 0 000 2.734zM8.545 27.617a1.367 1.367 0 100-2.734 1.367 1.367 0 000 2.734zM14.492 27.617a1.367 1.367 0 100-2.734 1.367 1.367 0 000 2.734zM14.492 15.723a1.367 1.367 0 100-2.735 1.367 1.367 0 000 2.735z"/></svg><svg viewBox="0 0 35 35" id="calendar-2" xmlns="http://www.w3.org/2000/svg"><path d="M26.387 15.723a1.367 1.367 0 100-2.735 1.367 1.367 0 000 2.735z"/><path d="M29.531 2.734h-1.777V1.367a1.367 1.367 0 10-2.735 0v1.367H18.8V1.367a1.367 1.367 0 10-2.735 0v1.367H9.912V1.367a1.367 1.367 0 10-2.734 0v1.367h-1.71A5.475 5.475 0 000 8.204V29.53A5.475 5.475 0 005.469 35h10.459a1.367 1.367 0 100-2.734H5.468a2.737 2.737 0 01-2.734-2.735V8.203A2.737 2.737 0 015.47 5.47h1.709v1.367a1.367 1.367 0 102.734 0V5.469h6.152v1.367a1.367 1.367 0 102.735 0V5.469h6.22v1.367a1.367 1.367 0 102.735 0V5.469h1.777a2.737 2.737 0 012.735 2.734v7.793a1.367 1.367 0 102.734 0V8.203a5.475 5.475 0 00-5.469-5.469z"/><path d="M26.729 18.457c-4.561 0-8.272 3.71-8.272 8.271 0 4.561 3.71 8.272 8.271 8.272C31.29 35 35 31.29 35 26.729c0-4.561-3.71-8.272-8.271-8.272zm0 13.809a5.543 5.543 0 01-5.538-5.537 5.543 5.543 0 015.538-5.538 5.543 5.543 0 015.537 5.538 5.543 5.543 0 01-5.537 5.537z"/><path d="M28.71 25.361h-.614v-1.435a1.367 1.367 0 10-2.735 0v2.803c0 .755.612 1.367 1.367 1.367h1.983a1.367 1.367 0 100-2.735zM20.44 15.723a1.367 1.367 0 100-2.735 1.367 1.367 0 000 2.735zM14.492 21.67a1.367 1.367 0 100-2.734 1.367 1.367 0 000 2.734zM8.545 15.723a1.367 1.367 0 100-2.735 1.367 1.367 0 000 2.735zM8.545 21.67a1.367 1.367 0 100-2.734 1.367 1.367 0 000 2.734zM8.545 27.617a1.367 1.367 0 100-2.734 1.367 1.367 0 000 2.734zM14.492 27.617a1.367 1.367 0 100-2.734 1.367 1.367 0 000 2.734zM14.492 15.723a1.367 1.367 0 100-2.735 1.367 1.367 0 000 2.735z"/></svg><svg viewBox="0 0 35 35" id="chip" xmlns="http://www.w3.org/2000/svg"><path d="M22.91 10.82H12.09a1.27 1.27 0 00-1.27 1.27v10.82c0 .702.569 1.27 1.27 1.27h10.82a1.27 1.27 0 001.27-1.27V12.09a1.27 1.27 0 00-1.27-1.27zm-1.27 10.82h-8.28v-8.28h8.28v8.28z"/><path d="M33.73 18.77a1.27 1.27 0 100-2.54h-4.14v-2.87h4.14a1.27 1.27 0 100-2.54h-4.14V6.68a1.27 1.27 0 00-1.27-1.27h-4.14V1.27a1.27 1.27 0 10-2.54 0v4.14h-2.87V1.27a1.27 1.27 0 10-2.54 0v4.14h-2.87V1.27a1.27 1.27 0 10-2.54 0v4.14H6.68a1.27 1.27 0 00-1.27 1.27v4.14H1.27a1.27 1.27 0 100 2.54h4.14v2.87H1.27a1.27 1.27 0 100 2.54h4.14v2.87H1.27a1.27 1.27 0 100 2.54h4.14v4.14c0 .702.568 1.27 1.27 1.27h4.14v4.14a1.27 1.27 0 102.54 0v-4.14h2.87v4.14a1.27 1.27 0 102.54 0v-4.14h2.87v4.14a1.27 1.27 0 102.54 0v-4.14h4.14a1.27 1.27 0 001.27-1.27v-4.14h4.14a1.27 1.27 0 100-2.54h-4.14v-2.87h4.14zm-6.68 8.28H7.95V7.95h19.1v19.1z"/></svg><svg viewBox="0 0 35 36" id="clock" xmlns="http://www.w3.org/2000/svg"><path d="M31.317 9.264a1.47 1.47 0 00-.677 1.96 14.593 14.593 0 011.443 6.38c0 8.09-6.542 14.67-14.583 14.67s-14.583-6.58-14.583-14.67c0-8.089 6.542-14.67 14.583-14.67 3.332 0 6.462 1.095 9.053 3.165a1.452 1.452 0 002.05-.235 1.472 1.472 0 00-.235-2.061A17.463 17.463 0 0017.5 0C7.851 0 0 7.898 0 17.605c0 9.706 7.851 17.604 17.5 17.604 9.649 0 17.5-7.898 17.5-17.605 0-2.69-.584-5.267-1.735-7.658a1.453 1.453 0 00-1.948-.682z"/><path d="M17.5 5.868c-.805 0-1.458.657-1.458 1.467v10.27c0 .81.653 1.466 1.458 1.466h7.292c.805 0 1.458-.657 1.458-1.466 0-.81-.653-1.468-1.458-1.468h-5.834V7.335c0-.81-.653-1.467-1.458-1.467z"/></svg><svg viewBox="0 0 35 26" id="delivery" xmlns="http://www.w3.org/2000/svg"><path d="M34.804 12.187l-4.631-6.954a1.166 1.166 0 00-.971-.52h-8.109V1.167C21.093.522 20.572 0 19.927 0H1.167C.522 0 0 .522 0 1.167V21c0 .644.522 1.167 1.167 1.167h3.665c.522 2.007 2.333 3.5 4.501 3.5s3.98-1.493 4.501-3.5h8.498c.522 2.007 2.333 3.5 4.501 3.5 2.169 0 3.98-1.493 4.501-3.5h2.5c.644 0 1.166-.523 1.166-1.167v-8.167c0-.23-.068-.455-.196-.646zM18.76 2.333v9.334H2.333V2.333H18.76zM2.333 14H18.76v5.833h-4.908c-.042-.162-.106-.316-.164-.471-.027-.07-.045-.144-.074-.212a4.656 4.656 0 00-.4-.735c-.034-.05-.076-.094-.111-.143a4.7 4.7 0 00-.416-.503c-.068-.07-.143-.133-.215-.199a4.634 4.634 0 00-.42-.346 4.628 4.628 0 00-.733-.43c-.095-.046-.19-.091-.29-.13a4.604 4.604 0 00-.552-.172c-.09-.023-.177-.053-.269-.07a4.645 4.645 0 00-.875-.089c-.3 0-.59.035-.874.089-.093.017-.18.047-.27.07a4.6 4.6 0 00-.552.172c-.1.039-.194.084-.29.13a4.643 4.643 0 00-.733.43 4.69 4.69 0 00-.42.346c-.072.066-.146.128-.214.199a4.703 4.703 0 00-.416.503c-.036.05-.078.092-.111.143a4.66 4.66 0 00-.4.735c-.03.068-.048.142-.074.212-.059.155-.123.309-.165.471h-2.48V14zm7 9.333A2.336 2.336 0 017 21a2.336 2.336 0 012.333-2.333A2.336 2.336 0 0111.667 21a2.336 2.336 0 01-2.334 2.333zm17.5 0A2.336 2.336 0 0124.5 21a2.336 2.336 0 012.333-2.333A2.336 2.336 0 0129.167 21a2.336 2.336 0 01-2.334 2.333zm5.834-3.5h-1.315c-.041-.159-.104-.309-.161-.46-.028-.075-.047-.152-.078-.225a4.646 4.646 0 00-.399-.733c-.034-.051-.077-.095-.113-.145a4.687 4.687 0 00-.414-.501c-.068-.07-.143-.133-.216-.2a4.663 4.663 0 00-.418-.345 4.675 4.675 0 00-.733-.43c-.096-.046-.19-.091-.29-.13a4.611 4.611 0 00-.552-.172c-.09-.023-.178-.053-.27-.07a4.662 4.662 0 00-.875-.089c-.3 0-.59.035-.874.089-.093.017-.18.047-.27.07a4.63 4.63 0 00-.552.172c-.1.039-.195.084-.29.13a4.657 4.657 0 00-.734.43 4.68 4.68 0 00-.418.345c-.073.067-.148.13-.216.2a4.68 4.68 0 00-.413.5c-.036.05-.08.095-.114.146-.154.231-.287.477-.398.734-.032.072-.05.15-.078.223-.057.152-.12.302-.161.461h-1.222V7.047h7.485l4.089 6.14v6.646z"/></svg><svg viewBox="0 0 35 35" id="dop" xmlns="http://www.w3.org/2000/svg"><path d="M34.794 12.075c-.453-1.338-1.54-2.18-2.5-2.925-.512-.398-.997-.773-1.276-1.141-.286-.376-.511-.937-.75-1.53-.44-1.1-.941-2.344-2.1-3.153-1.134-.792-2.502-.866-3.708-.93-.678-.036-1.318-.07-1.806-.222-.447-.139-.963-.461-1.509-.803C20.115.728 18.948 0 17.499 0c-1.449 0-2.615.728-3.644 1.371-.547.342-1.062.663-1.51.803-.487.152-1.128.186-1.806.223-1.206.065-2.572.137-3.708.93-1.158.808-1.658 2.052-2.1 3.15-.238.595-.465 1.156-.75 1.533-.28.369-.764.745-1.278 1.142-.957.744-2.044 1.586-2.496 2.923-.44 1.299-.087 2.581.225 3.713.173.63.338 1.224.338 1.711 0 .488-.165 1.082-.338 1.713-.312 1.13-.665 2.413-.225 3.713.452 1.337 1.539 2.179 2.498 2.922.512.398.996.773 1.276 1.141.285.377.51.938.75 1.532.44 1.1.942 2.344 2.102 3.154 1.134.791 2.5.864 3.706.928.678.036 1.32.07 1.806.222.447.14.963.462 1.508.803 1.03.643 2.197 1.371 3.646 1.371 1.45 0 2.618-.728 3.648-1.371.546-.342 1.061-.663 1.508-.803.487-.152 1.128-.186 1.807-.222 1.205-.064 2.57-.137 3.706-.929 1.16-.809 1.66-2.055 2.102-3.155.238-.593.464-1.155.747-1.528.28-.37.765-.745 1.277-1.142.959-.743 2.047-1.586 2.5-2.923.44-1.3.086-2.582-.226-3.714-.175-.63-.339-1.226-.339-1.713 0-.487.164-1.082.339-1.712.312-1.13.665-2.413.226-3.71zm-3.038 7.912c.21.763.428 1.552.275 2.003-.17.505-.858 1.038-1.523 1.554-.64.495-1.3 1.007-1.813 1.683-.521.686-.832 1.459-1.131 2.204-.319.791-.62 1.539-1.066 1.85-.45.317-1.296.361-2.192.409-.828.044-1.684.09-2.518.35-.806.251-1.507.689-2.186 1.112-.765.478-1.488.93-2.103.93-.613 0-1.336-.452-2.1-.928-.68-.424-1.381-.863-2.187-1.113-.835-.26-1.69-.306-2.518-.35-.896-.048-1.74-.093-2.191-.408-.447-.312-.748-1.06-1.066-1.85-.3-.746-.611-1.519-1.133-2.206-.512-.675-1.173-1.188-1.812-1.683-.665-.515-1.352-1.049-1.523-1.554-.153-.451.065-1.24.274-2.004.207-.752.442-1.605.442-2.486 0-.882-.235-1.734-.442-2.487-.21-.762-.427-1.55-.274-2.003.171-.505.858-1.038 1.522-1.553.64-.496 1.301-1.01 1.813-1.684.522-.687.833-1.46 1.134-2.207.317-.79.618-1.537 1.063-1.848.452-.316 1.298-.361 2.193-.41.828-.044 1.683-.09 2.517-.349.807-.25 1.509-.69 2.189-1.113.764-.48 1.486-.93 2.1-.93.613 0 1.335.45 2.1.929.68.424 1.382.863 2.188 1.112.835.26 1.69.306 2.517.35.896.048 1.741.093 2.193.41.447.312.746 1.057 1.064 1.848.3.746.611 1.52 1.133 2.207.513.674 1.173 1.187 1.813 1.683.664.514 1.352 1.048 1.523 1.554.153.451-.065 1.24-.275 2.002-.208.753-.443 1.606-.443 2.488 0 .882.235 1.735.443 2.488z"/><path d="M24.061 17.5A6.57 6.57 0 0117.5 24.06a6.57 6.57 0 01-6.562-6.562 6.57 6.57 0 016.562-6.562h1.459V8.02h-1.459c-5.226 0-9.478 4.253-9.478 9.48 0 5.226 4.252 9.478 9.478 9.478 5.227 0 9.479-4.253 9.479-9.479v-1.458H24.06v1.458z"/><path d="M16.041 13.979L13.98 16.04l3.52 3.52 7.896-7.895-2.063-2.062-5.833 5.833-1.458-1.458z"/></svg><svg viewBox="0 0 43 13" id="free" xmlns="http://www.w3.org/2000/svg"><path d="M3.776 3.845v1.92h4.672v2.848H3.776v3.584H0V.997h9.104v2.848H3.776zM15.097 9.381h-1.024v2.816h-3.776V.997h5.392c1.035 0 1.936.17 2.704.512.768.341 1.36.832 1.776 1.472.416.64.624 1.387.624 2.24 0 .8-.181 1.499-.544 2.096-.363.597-.886 1.072-1.568 1.424l2.352 3.456H17l-1.904-2.816zm1.888-4.16c0-.416-.128-.736-.384-.96-.256-.235-.64-.352-1.152-.352h-1.376v2.624h1.376c.512 0 .896-.112 1.152-.336.256-.235.384-.56.384-.976zM31.53 9.35v2.847H22.22V.997h9.104v2.848H25.93v1.312h4.736v2.72H25.93V9.35h5.6zM42.296 9.35v2.847h-9.312V.997h9.104v2.848h-5.392v1.312h4.736v2.72h-4.736V9.35h5.6z"/></svg><svg viewBox="0 0 37 37" id="gear" xmlns="http://www.w3.org/2000/svg"><mask id="ia" maskUnits="userSpaceOnUse" x="0" y="0" width="37" height="37"><path d="M0 0h37v37H0z"/><path d="M18.5 11.322c-3.958 0-7.178 3.22-7.178 7.178 0 3.958 3.22 7.178 7.178 7.178 3.958 0 7.178-3.22 7.178-7.178 0-3.958-3.22-7.178-7.178-7.178zm0 12.305a5.133 5.133 0 01-5.127-5.127c0-2.827 2.3-5.127 5.127-5.127s5.127 2.3 5.127 5.127-2.3 5.127-5.127 5.127z"/><path d="M35.22 15.454l-4.011-.987a13.242 13.242 0 00-.927-2.204l1.87-3.116c.241-.403.178-.92-.155-1.252l-2.9-2.9a1.025 1.025 0 00-1.253-.155c-.026.016-2.104 1.263-3.119 1.87a13.267 13.267 0 00-2.19-.918l-.989-4.012a1.025 1.025 0 00-.995-.78h-4.102c-.472 0-.883.322-.995.78l-.988 4.012c-.804.255-1.582.586-2.324.99l-1.7-1.02-1.536-.922a1.025 1.025 0 00-1.253.155l-2.9 2.9c-.333.332-.396.849-.154 1.252.013.023 1.216 2.027 2 3.341a13.26 13.26 0 00-.807 1.977c-1.367.34-3.98.98-4.01.988A1.025 1.025 0 001 16.45v4.102c0 .472.323.883.781.996.03.007 2.624.643 4.012.986.244.773.56 1.523.943 2.241l-1.79 2.985c-.242.403-.179.92.154 1.253l2.9 2.9c.333.333.85.396 1.253.154.025-.015 2.014-1.209 2.99-1.793.712.38 1.457.693 2.225.936l.986 4.01c.112.459.523.781.995.781h4.102c.472 0 .883-.322.996-.78l.986-4.011c.788-.25 1.55-.574 2.273-.966l3.038 1.823c.404.242.92.179 1.253-.154l2.9-2.9c.333-.333.396-.85.154-1.253l-1.843-3.072c.363-.69.664-1.41.9-2.154l4.011-.986c.459-.113.781-.524.781-.996v-4.102c0-.472-.322-.883-.78-.996zm-1.27 4.293c-1.185.29-3.332.819-3.741.921l-.078.02a1.026 1.026 0 00-.733.728c-.259.973-.648 1.905-1.158 2.772-.19.323-.188.725.005 1.046l1.736 2.893-1.768 1.768-2.867-1.72a1.025 1.025 0 00-1.06.003c-.889.539-1.853.95-2.867 1.22-.354.095-.63.37-.725.724-.057.211-.113.434-.114.438l-.833 3.39h-2.494l-.739-3.012-.2-.797a1.025 1.025 0 00-.73-.742 11.206 11.206 0 01-2.833-1.193 1.025 1.025 0 00-1.045 0c-.22.13-1.863 1.114-2.822 1.69l-1.768-1.768 1.686-2.81c.194-.324.194-.728.001-1.053a11.104 11.104 0 01-1.199-2.846 1.025 1.025 0 00-.742-.733c-.734-.184-2.705-.668-3.811-.94v-2.493c1.117-.274 3.113-.765 3.812-.942.36-.091.643-.37.739-.73.243-.912.603-1.792 1.068-2.617.181-.32.176-.713-.012-1.029-.496-.832-1.373-2.295-1.889-3.156L8.537 7.01l.85.51 2.217 1.33c.326.194.733.193 1.058-.004a11.21 11.21 0 012.922-1.246c.36-.096.64-.38.73-.74l.939-3.81h2.494l.938 3.809c.091.361.37.645.73.741.984.262 1.928.658 2.807 1.177.322.19.723.19 1.044-.002.288-.17 1.975-1.182 2.947-1.765l1.768 1.768-1.763 2.938a1.026 1.026 0 00-.003 1.051c.521.88.92 1.826 1.183 2.812.094.354.37.63.722.725.212.058.436.114.44.114l3.39.834v2.494z"/></mask><path d="M18.5 11.322c-3.958 0-7.178 3.22-7.178 7.178 0 3.958 3.22 7.178 7.178 7.178 3.958 0 7.178-3.22 7.178-7.178 0-3.958-3.22-7.178-7.178-7.178zm0 12.305a5.133 5.133 0 01-5.127-5.127c0-2.827 2.3-5.127 5.127-5.127s5.127 2.3 5.127 5.127-2.3 5.127-5.127 5.127z"/><path d="M35.22 15.454l-4.011-.987a13.242 13.242 0 00-.927-2.204l1.87-3.116c.241-.403.178-.92-.155-1.252l-2.9-2.9a1.025 1.025 0 00-1.253-.155c-.026.016-2.104 1.263-3.119 1.87a13.267 13.267 0 00-2.19-.918l-.989-4.012a1.025 1.025 0 00-.995-.78h-4.102c-.472 0-.883.322-.995.78l-.988 4.012c-.804.255-1.582.586-2.324.99l-1.7-1.02-1.536-.922a1.025 1.025 0 00-1.253.155l-2.9 2.9c-.333.332-.396.849-.154 1.252.013.023 1.216 2.027 2 3.341a13.26 13.26 0 00-.807 1.977c-1.367.34-3.98.98-4.01.988A1.025 1.025 0 001 16.45v4.102c0 .472.323.883.781.996.03.007 2.624.643 4.012.986.244.773.56 1.523.943 2.241l-1.79 2.985c-.242.403-.179.92.154 1.253l2.9 2.9c.333.333.85.396 1.253.154.025-.015 2.014-1.209 2.99-1.793.712.38 1.457.693 2.225.936l.986 4.01c.112.459.523.781.995.781h4.102c.472 0 .883-.322.996-.78l.986-4.011c.788-.25 1.55-.574 2.273-.966l3.038 1.823c.404.242.92.179 1.253-.154l2.9-2.9c.333-.333.396-.85.154-1.253l-1.843-3.072c.363-.69.664-1.41.9-2.154l4.011-.986c.459-.113.781-.524.781-.996v-4.102c0-.472-.322-.883-.78-.996zm-1.27 4.293c-1.185.29-3.332.819-3.741.921l-.078.02a1.026 1.026 0 00-.733.728c-.259.973-.648 1.905-1.158 2.772-.19.323-.188.725.005 1.046l1.736 2.893-1.768 1.768-2.867-1.72a1.025 1.025 0 00-1.06.003c-.889.539-1.853.95-2.867 1.22-.354.095-.63.37-.725.724-.057.211-.113.434-.114.438l-.833 3.39h-2.494l-.739-3.012-.2-.797a1.025 1.025 0 00-.73-.742 11.206 11.206 0 01-2.833-1.193 1.025 1.025 0 00-1.045 0c-.22.13-1.863 1.114-2.822 1.69l-1.768-1.768 1.686-2.81c.194-.324.194-.728.001-1.053a11.104 11.104 0 01-1.199-2.846 1.025 1.025 0 00-.742-.733c-.734-.184-2.705-.668-3.811-.94v-2.493c1.117-.274 3.113-.765 3.812-.942.36-.091.643-.37.739-.73.243-.912.603-1.792 1.068-2.617.181-.32.176-.713-.012-1.029-.496-.832-1.373-2.295-1.889-3.156L8.537 7.01l.85.51 2.217 1.33c.326.194.733.193 1.058-.004a11.21 11.21 0 012.922-1.246c.36-.096.64-.38.73-.74l.939-3.81h2.494l.938 3.809c.091.361.37.645.73.741.984.262 1.928.658 2.807 1.177.322.19.723.19 1.044-.002.288-.17 1.975-1.182 2.947-1.765l1.768 1.768-1.763 2.938a1.026 1.026 0 00-.003 1.051c.521.88.92 1.826 1.183 2.812.094.354.37.63.722.725.212.058.436.114.44.114l3.39.834v2.494z"/><path d="M18.5 11.322c-3.958 0-7.178 3.22-7.178 7.178 0 3.958 3.22 7.178 7.178 7.178 3.958 0 7.178-3.22 7.178-7.178 0-3.958-3.22-7.178-7.178-7.178zm0 12.305a5.133 5.133 0 01-5.127-5.127c0-2.827 2.3-5.127 5.127-5.127s5.127 2.3 5.127 5.127-2.3 5.127-5.127 5.127z" stroke-width=".6" mask="url(#ia)"/><path d="M35.22 15.454l-4.011-.987a13.242 13.242 0 00-.927-2.204l1.87-3.116c.241-.403.178-.92-.155-1.252l-2.9-2.9a1.025 1.025 0 00-1.253-.155c-.026.016-2.104 1.263-3.119 1.87a13.267 13.267 0 00-2.19-.918l-.989-4.012a1.025 1.025 0 00-.995-.78h-4.102c-.472 0-.883.322-.995.78l-.988 4.012c-.804.255-1.582.586-2.324.99l-1.7-1.02-1.536-.922a1.025 1.025 0 00-1.253.155l-2.9 2.9c-.333.332-.396.849-.154 1.252.013.023 1.216 2.027 2 3.341a13.26 13.26 0 00-.807 1.977c-1.367.34-3.98.98-4.01.988A1.025 1.025 0 001 16.45v4.102c0 .472.323.883.781.996.03.007 2.624.643 4.012.986.244.773.56 1.523.943 2.241l-1.79 2.985c-.242.403-.179.92.154 1.253l2.9 2.9c.333.333.85.396 1.253.154.025-.015 2.014-1.209 2.99-1.793.712.38 1.457.693 2.225.936l.986 4.01c.112.459.523.781.995.781h4.102c.472 0 .883-.322.996-.78l.986-4.011c.788-.25 1.55-.574 2.273-.966l3.038 1.823c.404.242.92.179 1.253-.154l2.9-2.9c.333-.333.396-.85.154-1.253l-1.843-3.072c.363-.69.664-1.41.9-2.154l4.011-.986c.459-.113.781-.524.781-.996v-4.102c0-.472-.322-.883-.78-.996zm-1.27 4.293c-1.185.29-3.332.819-3.741.921l-.078.02a1.026 1.026 0 00-.733.728c-.259.973-.648 1.905-1.158 2.772-.19.323-.188.725.005 1.046l1.736 2.893-1.768 1.768-2.867-1.72a1.025 1.025 0 00-1.06.003c-.889.539-1.853.95-2.867 1.22-.354.095-.63.37-.725.724-.057.211-.113.434-.114.438l-.833 3.39h-2.494l-.739-3.012-.2-.797a1.025 1.025 0 00-.73-.742 11.206 11.206 0 01-2.833-1.193 1.025 1.025 0 00-1.045 0c-.22.13-1.863 1.114-2.822 1.69l-1.768-1.768 1.686-2.81c.194-.324.194-.728.001-1.053a11.104 11.104 0 01-1.199-2.846 1.025 1.025 0 00-.742-.733c-.734-.184-2.705-.668-3.811-.94v-2.493c1.117-.274 3.113-.765 3.812-.942.36-.091.643-.37.739-.73.243-.912.603-1.792 1.068-2.617.181-.32.176-.713-.012-1.029-.496-.832-1.373-2.295-1.889-3.156L8.537 7.01l.85.51 2.217 1.33c.326.194.733.193 1.058-.004a11.21 11.21 0 012.922-1.246c.36-.096.64-.38.73-.74l.939-3.81h2.494l.938 3.809c.091.361.37.645.73.741.984.262 1.928.658 2.807 1.177.322.19.723.19 1.044-.002.288-.17 1.975-1.182 2.947-1.765l1.768 1.768-1.763 2.938a1.026 1.026 0 00-.003 1.051c.521.88.92 1.826 1.183 2.812.094.354.37.63.722.725.212.058.436.114.44.114l3.39.834v2.494z" stroke-width=".6" mask="url(#ia)"/></svg><svg viewBox="0 0 35 35" id="gem" xmlns="http://www.w3.org/2000/svg"><path d="M35 12.229c0-.213-.07-.438-.208-.62L28.57 3.406A1.035 1.035 0 0027.754 3H7.246c-.313 0-.623.15-.817.406L.21 11.609a1.028 1.028 0 00.017 1.262l16.475 20.508c.198.246.497.383.799.383.306 0 .604-.14.8-.383L34.773 12.87c.141-.176.226-.409.226-.643zM7.067 5.959l2.622 5.244h-6.6L7.068 5.96zm15.207 7.295L17.5 29.168l-4.774-15.914h9.548zm-8.876-2.05l4.102-5.47 4.102 5.47h-8.204zm6.153-6.153h6.544l-2.618 5.235-3.926-5.235zm-8.028 5.235L8.905 5.051h6.544l-3.926 5.235zm-.938 2.968l4.422 14.742L3.165 13.254h7.42zm13.83 0h7.42L19.994 27.996l4.422-14.742zm.896-2.05l2.622-5.245 3.977 5.244h-6.599z"/></svg><svg viewBox="0 0 35 35" id="like" xmlns="http://www.w3.org/2000/svg"><path d="M31.976 21.67a3.065 3.065 0 00.786-2.05 3.08 3.08 0 00-3.076-3.077h-5.971c.591-1.794.844-4.175.844-5.196v-1.025a4.107 4.107 0 00-4.102-4.101h-1.025c-.47 0-.88.32-.995.776l-.559 2.235c-.782 3.13-3.267 6.582-5.839 7.21a3.08 3.08 0 00-2.861-1.95H3.025c-.566 0-1.025.46-1.025 1.026v18.457C2 34.54 2.46 35 3.025 35h6.153a3.08 3.08 0 002.776-1.753l3.524 1.174c1.152.384 2.352.579 3.567.579h8.59a3.08 3.08 0 002.86-4.21 3.082 3.082 0 002.267-2.968c0-.787-.298-1.506-.786-2.05a3.065 3.065 0 00.786-2.051c0-.787-.298-1.506-.786-2.051zM10.203 31.924c0 .565-.46 1.025-1.025 1.025H4.05V16.543h5.127c.565 0 1.025.46 1.025 1.025v14.356zm17.432-9.229h2.05a1.027 1.027 0 010 2.051h-2.05a1.026 1.026 0 000 2.05h2.05a1.027 1.027 0 010 2.052h-2.05a1.026 1.026 0 000 2.05 1.027 1.027 0 010 2.05h-8.59a9.21 9.21 0 01-2.92-.473l-3.871-1.29V18.497c1.608-.306 3.183-1.324 4.604-2.992 1.388-1.628 2.513-3.787 3.01-5.775l.364-1.459h.225c1.13 0 2.05.92 2.05 2.051v1.025c0 1.377-.43 4.018-.98 5.196h-2.095a1.026 1.026 0 000 2.05h10.254a1.027 1.027 0 010 2.052h-2.051a1.026 1.026 0 000 2.05z"/><path d="M7.127 30.898a1.025 1.025 0 100-2.05 1.025 1.025 0 000 2.05zM21.482 0c-.566 0-1.025.46-1.025 1.025v2.12a1.025 1.025 0 002.05 0v-2.12C22.508.46 22.05 0 21.483 0zM17.132 4.522l-1.45-1.45a1.025 1.025 0 10-1.45 1.45l1.45 1.45a1.025 1.025 0 001.45-1.45zM28.733 3.072c-.4-.4-1.05-.4-1.45 0l-1.45 1.45a1.025 1.025 0 101.45 1.45l1.45-1.45c.4-.4.4-1.05 0-1.45z"/></svg><svg viewBox="0 0 35 31" id="pay" xmlns="http://www.w3.org/2000/svg"><path d="M29.531 0H5.47C2.453 0 0 2.468 0 5.501v14.854c0 3.033 2.453 5.501 5.469 5.501h8.408c.755 0 1.367-.615 1.367-1.375s-.612-1.375-1.367-1.375H5.469a2.746 2.746 0 01-2.735-2.751V10.048h29.532v3.37c0 .76.612 1.375 1.367 1.375S35 14.177 35 13.418V5.5C35 2.468 32.547 0 29.53 0zm2.735 7.298H2.734V5.5a2.746 2.746 0 012.735-2.75H29.53a2.746 2.746 0 012.735 2.75v1.797z"/><path d="M34.428 17.797a1.362 1.362 0 00-1.907.318l-6.739 9.47a.772.772 0 01-.538.268.766.766 0 01-.586-.21l-4.363-4.214a1.361 1.361 0 00-1.933.04 1.381 1.381 0 00.04 1.944l4.366 4.218a3.514 3.514 0 002.658.967 3.518 3.518 0 002.552-1.374l6.766-9.508a1.38 1.38 0 00-.316-1.919z"/></svg><svg viewBox="0 0 19 19" id="phone" xmlns="http://www.w3.org/2000/svg"><path d="M17.476 12.471c-1.164 0-2.306-.182-3.388-.54-.53-.18-1.183-.014-1.506.318l-2.137 1.613c-2.477-1.323-4.003-2.848-5.308-5.307l1.565-2.08c.407-.407.553-1 .378-1.557a10.804 10.804 0 01-.542-3.393C6.538.684 5.855 0 5.014 0h-3.49C.685 0 0 .684 0 1.525 0 11.16 7.84 19 17.476 19c.84 0 1.524-.684 1.524-1.525v-3.48c0-.84-.684-1.524-1.524-1.524z"/></svg><svg viewBox="0 0 37 37" id="repair" xmlns="http://www.w3.org/2000/svg"><mask id="na" maskUnits="userSpaceOnUse" x="0" y="0" width="37" height="37"><path d="M0 0h37v37H0z"/><path d="M18.5 11.322c-3.958 0-7.178 3.22-7.178 7.178 0 3.958 3.22 7.178 7.178 7.178 3.958 0 7.178-3.22 7.178-7.178 0-3.958-3.22-7.178-7.178-7.178zm0 12.305a5.133 5.133 0 01-5.127-5.127c0-2.827 2.3-5.127 5.127-5.127s5.127 2.3 5.127 5.127-2.3 5.127-5.127 5.127z"/><path d="M35.22 15.454l-4.011-.987a13.242 13.242 0 00-.927-2.204l1.87-3.116c.241-.403.178-.92-.155-1.252l-2.9-2.9a1.025 1.025 0 00-1.253-.155c-.026.016-2.104 1.263-3.119 1.87a13.267 13.267 0 00-2.19-.918l-.989-4.012a1.025 1.025 0 00-.995-.78h-4.102c-.472 0-.883.322-.995.78l-.988 4.012c-.804.255-1.582.586-2.324.99l-1.7-1.02-1.536-.922a1.025 1.025 0 00-1.253.155l-2.9 2.9c-.333.332-.396.849-.154 1.252.013.023 1.216 2.027 2 3.341a13.26 13.26 0 00-.807 1.977c-1.367.34-3.98.98-4.01.988A1.025 1.025 0 001 16.45v4.102c0 .472.323.883.781.996.03.007 2.624.643 4.012.986.244.773.56 1.523.943 2.241l-1.79 2.985c-.242.403-.179.92.154 1.253l2.9 2.9c.333.333.85.396 1.253.154.025-.015 2.014-1.209 2.99-1.793.712.38 1.457.693 2.225.936l.986 4.01c.112.459.523.781.995.781h4.102c.472 0 .883-.322.996-.78l.986-4.011c.788-.25 1.55-.574 2.273-.966l3.038 1.823c.404.242.92.179 1.253-.154l2.9-2.9c.333-.333.396-.85.154-1.253l-1.843-3.072c.363-.69.664-1.41.9-2.154l4.011-.986c.459-.113.781-.524.781-.996v-4.102c0-.472-.322-.883-.78-.996zm-1.27 4.293c-1.185.29-3.332.819-3.741.921l-.078.02a1.026 1.026 0 00-.733.728c-.259.973-.648 1.905-1.158 2.772-.19.323-.188.725.005 1.046l1.736 2.893-1.768 1.768-2.867-1.72a1.025 1.025 0 00-1.06.003c-.889.539-1.853.95-2.867 1.22-.354.095-.63.37-.725.724-.057.211-.113.434-.114.438l-.833 3.39h-2.494l-.739-3.012-.2-.797a1.025 1.025 0 00-.73-.742 11.206 11.206 0 01-2.833-1.193 1.025 1.025 0 00-1.045 0c-.22.13-1.863 1.114-2.822 1.69l-1.768-1.768 1.686-2.81c.194-.324.194-.728.001-1.053a11.104 11.104 0 01-1.199-2.846 1.025 1.025 0 00-.742-.733c-.734-.184-2.705-.668-3.811-.94v-2.493c1.117-.274 3.113-.765 3.812-.942.36-.091.643-.37.739-.73.243-.912.603-1.792 1.068-2.617.181-.32.176-.713-.012-1.029-.496-.832-1.373-2.295-1.889-3.156L8.537 7.01l.85.51 2.217 1.33c.326.194.733.193 1.058-.004a11.21 11.21 0 012.922-1.246c.36-.096.64-.38.73-.74l.939-3.81h2.494l.938 3.809c.091.361.37.645.73.741.984.262 1.928.658 2.807 1.177.322.19.723.19 1.044-.002.288-.17 1.975-1.182 2.947-1.765l1.768 1.768-1.763 2.938a1.026 1.026 0 00-.003 1.051c.521.88.92 1.826 1.183 2.812.094.354.37.63.722.725.212.058.436.114.44.114l3.39.834v2.494z"/></mask><path d="M18.5 11.322c-3.958 0-7.178 3.22-7.178 7.178 0 3.958 3.22 7.178 7.178 7.178 3.958 0 7.178-3.22 7.178-7.178 0-3.958-3.22-7.178-7.178-7.178zm0 12.305a5.133 5.133 0 01-5.127-5.127c0-2.827 2.3-5.127 5.127-5.127s5.127 2.3 5.127 5.127-2.3 5.127-5.127 5.127z"/><path d="M35.22 15.454l-4.011-.987a13.242 13.242 0 00-.927-2.204l1.87-3.116c.241-.403.178-.92-.155-1.252l-2.9-2.9a1.025 1.025 0 00-1.253-.155c-.026.016-2.104 1.263-3.119 1.87a13.267 13.267 0 00-2.19-.918l-.989-4.012a1.025 1.025 0 00-.995-.78h-4.102c-.472 0-.883.322-.995.78l-.988 4.012c-.804.255-1.582.586-2.324.99l-1.7-1.02-1.536-.922a1.025 1.025 0 00-1.253.155l-2.9 2.9c-.333.332-.396.849-.154 1.252.013.023 1.216 2.027 2 3.341a13.26 13.26 0 00-.807 1.977c-1.367.34-3.98.98-4.01.988A1.025 1.025 0 001 16.45v4.102c0 .472.323.883.781.996.03.007 2.624.643 4.012.986.244.773.56 1.523.943 2.241l-1.79 2.985c-.242.403-.179.92.154 1.253l2.9 2.9c.333.333.85.396 1.253.154.025-.015 2.014-1.209 2.99-1.793.712.38 1.457.693 2.225.936l.986 4.01c.112.459.523.781.995.781h4.102c.472 0 .883-.322.996-.78l.986-4.011c.788-.25 1.55-.574 2.273-.966l3.038 1.823c.404.242.92.179 1.253-.154l2.9-2.9c.333-.333.396-.85.154-1.253l-1.843-3.072c.363-.69.664-1.41.9-2.154l4.011-.986c.459-.113.781-.524.781-.996v-4.102c0-.472-.322-.883-.78-.996zm-1.27 4.293c-1.185.29-3.332.819-3.741.921l-.078.02a1.026 1.026 0 00-.733.728c-.259.973-.648 1.905-1.158 2.772-.19.323-.188.725.005 1.046l1.736 2.893-1.768 1.768-2.867-1.72a1.025 1.025 0 00-1.06.003c-.889.539-1.853.95-2.867 1.22-.354.095-.63.37-.725.724-.057.211-.113.434-.114.438l-.833 3.39h-2.494l-.739-3.012-.2-.797a1.025 1.025 0 00-.73-.742 11.206 11.206 0 01-2.833-1.193 1.025 1.025 0 00-1.045 0c-.22.13-1.863 1.114-2.822 1.69l-1.768-1.768 1.686-2.81c.194-.324.194-.728.001-1.053a11.104 11.104 0 01-1.199-2.846 1.025 1.025 0 00-.742-.733c-.734-.184-2.705-.668-3.811-.94v-2.493c1.117-.274 3.113-.765 3.812-.942.36-.091.643-.37.739-.73.243-.912.603-1.792 1.068-2.617.181-.32.176-.713-.012-1.029-.496-.832-1.373-2.295-1.889-3.156L8.537 7.01l.85.51 2.217 1.33c.326.194.733.193 1.058-.004a11.21 11.21 0 012.922-1.246c.36-.096.64-.38.73-.74l.939-3.81h2.494l.938 3.809c.091.361.37.645.73.741.984.262 1.928.658 2.807 1.177.322.19.723.19 1.044-.002.288-.17 1.975-1.182 2.947-1.765l1.768 1.768-1.763 2.938a1.026 1.026 0 00-.003 1.051c.521.88.92 1.826 1.183 2.812.094.354.37.63.722.725.212.058.436.114.44.114l3.39.834v2.494z"/><path d="M18.5 11.322c-3.958 0-7.178 3.22-7.178 7.178 0 3.958 3.22 7.178 7.178 7.178 3.958 0 7.178-3.22 7.178-7.178 0-3.958-3.22-7.178-7.178-7.178zm0 12.305a5.133 5.133 0 01-5.127-5.127c0-2.827 2.3-5.127 5.127-5.127s5.127 2.3 5.127 5.127-2.3 5.127-5.127 5.127z" stroke-width=".6" mask="url(#na)"/><path d="M35.22 15.454l-4.011-.987a13.242 13.242 0 00-.927-2.204l1.87-3.116c.241-.403.178-.92-.155-1.252l-2.9-2.9a1.025 1.025 0 00-1.253-.155c-.026.016-2.104 1.263-3.119 1.87a13.267 13.267 0 00-2.19-.918l-.989-4.012a1.025 1.025 0 00-.995-.78h-4.102c-.472 0-.883.322-.995.78l-.988 4.012c-.804.255-1.582.586-2.324.99l-1.7-1.02-1.536-.922a1.025 1.025 0 00-1.253.155l-2.9 2.9c-.333.332-.396.849-.154 1.252.013.023 1.216 2.027 2 3.341a13.26 13.26 0 00-.807 1.977c-1.367.34-3.98.98-4.01.988A1.025 1.025 0 001 16.45v4.102c0 .472.323.883.781.996.03.007 2.624.643 4.012.986.244.773.56 1.523.943 2.241l-1.79 2.985c-.242.403-.179.92.154 1.253l2.9 2.9c.333.333.85.396 1.253.154.025-.015 2.014-1.209 2.99-1.793.712.38 1.457.693 2.225.936l.986 4.01c.112.459.523.781.995.781h4.102c.472 0 .883-.322.996-.78l.986-4.011c.788-.25 1.55-.574 2.273-.966l3.038 1.823c.404.242.92.179 1.253-.154l2.9-2.9c.333-.333.396-.85.154-1.253l-1.843-3.072c.363-.69.664-1.41.9-2.154l4.011-.986c.459-.113.781-.524.781-.996v-4.102c0-.472-.322-.883-.78-.996zm-1.27 4.293c-1.185.29-3.332.819-3.741.921l-.078.02a1.026 1.026 0 00-.733.728c-.259.973-.648 1.905-1.158 2.772-.19.323-.188.725.005 1.046l1.736 2.893-1.768 1.768-2.867-1.72a1.025 1.025 0 00-1.06.003c-.889.539-1.853.95-2.867 1.22-.354.095-.63.37-.725.724-.057.211-.113.434-.114.438l-.833 3.39h-2.494l-.739-3.012-.2-.797a1.025 1.025 0 00-.73-.742 11.206 11.206 0 01-2.833-1.193 1.025 1.025 0 00-1.045 0c-.22.13-1.863 1.114-2.822 1.69l-1.768-1.768 1.686-2.81c.194-.324.194-.728.001-1.053a11.104 11.104 0 01-1.199-2.846 1.025 1.025 0 00-.742-.733c-.734-.184-2.705-.668-3.811-.94v-2.493c1.117-.274 3.113-.765 3.812-.942.36-.091.643-.37.739-.73.243-.912.603-1.792 1.068-2.617.181-.32.176-.713-.012-1.029-.496-.832-1.373-2.295-1.889-3.156L8.537 7.01l.85.51 2.217 1.33c.326.194.733.193 1.058-.004a11.21 11.21 0 012.922-1.246c.36-.096.64-.38.73-.74l.939-3.81h2.494l.938 3.809c.091.361.37.645.73.741.984.262 1.928.658 2.807 1.177.322.19.723.19 1.044-.002.288-.17 1.975-1.182 2.947-1.765l1.768 1.768-1.763 2.938a1.026 1.026 0 00-.003 1.051c.521.88.92 1.826 1.183 2.812.094.354.37.63.722.725.212.058.436.114.44.114l3.39.834v2.494z" stroke-width=".6" mask="url(#na)"/></svg><svg viewBox="0 0 35 31" id="repair-2" xmlns="http://www.w3.org/2000/svg"><path d="M29.167 5.833h-4.375V1.458C24.792.653 24.138 0 23.333 0H11.667c-.805 0-1.459.653-1.459 1.458v4.375H5.833A5.84 5.84 0 000 11.667v16.041a2.92 2.92 0 002.917 2.917h29.166A2.92 2.92 0 0035 27.708V11.667a5.84 5.84 0 00-5.833-5.834zM13.125 2.917h8.75v2.916h-8.75V2.917zM2.917 27.708V16.771h2.187a1.459 1.459 0 000-2.917H2.917v-2.187A2.92 2.92 0 015.833 8.75h23.334a2.92 2.92 0 012.916 2.917v2.187h-2.187a1.459 1.459 0 000 2.917h2.187v10.937H2.917z"/><path d="M23.333 16.77h-.944a5.078 5.078 0 00-.4-.968l.667-.666a1.458 1.458 0 10-2.062-2.063l-.667.668c-.306-.166-.63-.3-.969-.401v-.944a1.459 1.459 0 00-2.916 0v.944a5.051 5.051 0 00-.969.4l-.667-.667a1.458 1.458 0 10-2.062 2.063l.667.666c-.165.306-.299.63-.4.969h-.944a1.459 1.459 0 000 2.916h.944c.101.339.234.664.4.969l-.667.667a1.457 1.457 0 102.062 2.062l.667-.667c.306.165.63.299.969.4v.945a1.459 1.459 0 002.916 0v-.945c.339-.101.664-.234.969-.4l.667.667a1.452 1.452 0 002.062 0c.57-.57.57-1.493 0-2.062l-.667-.667c.165-.306.299-.63.4-.968h.944a1.459 1.459 0 000-2.917zm-8.02 1.46a2.19 2.19 0 012.187-2.188 2.19 2.19 0 012.188 2.187 2.19 2.19 0 01-2.188 2.188 2.19 2.19 0 01-2.188-2.188z"/></svg><svg viewBox="0 0 35 35" id="settings" xmlns="http://www.w3.org/2000/svg"><path d="M33.5 26.254l-7.343-7.344a5.177 5.177 0 00-2.854-1.438l3.238-3.237a7.201 7.201 0 006.337-1.99 7.186 7.186 0 001.402-8.164 1.025 1.025 0 00-1.65-.283l-2.35 2.35h-1.45V4.7l2.351-2.35c.5-.5.354-1.345-.283-1.65a7.186 7.186 0 00-8.165 1.402 7.201 7.201 0 00-1.989 6.337l-3.98 3.98-5.595-5.596.725-.725a1.025 1.025 0 00-.197-1.603L4.45.146A1.025 1.025 0 003.199.3L.3 3.2A1.025 1.025 0 00.146 4.45l4.348 7.246a1.025 1.025 0 001.603.197l.725-.725 5.595 5.596-3.979 3.979a7.202 7.202 0 00-6.337 1.989A7.186 7.186 0 00.7 30.898c.305.638 1.15.782 1.65.283l2.35-2.35h1.45v1.448L3.798 32.63c-.5.5-.355 1.345.283 1.65a7.184 7.184 0 008.165-1.402 7.202 7.202 0 001.989-6.338l3.237-3.237c.168 1.1.696 2.11 1.44 2.855l7.342 7.343a5.128 5.128 0 007.247 0 5.13 5.13 0 000-7.247zM5.577 9.517l-3.26-5.435 1.766-1.767 5.435 3.261-3.941 3.94zm2.695.203l1.45-1.449 5.595 5.595-1.45 1.45L8.271 9.72zm4.118 15.768c-.259.259-.36.636-.266.99a5.144 5.144 0 01-1.326 4.95 5.136 5.136 0 01-4.349 1.45l1.45-1.45c.192-.192.3-.452.3-.724v-2.899c0-.566-.459-1.024-1.025-1.024H4.275c-.272 0-.533.108-.725.3L2.1 28.53a5.136 5.136 0 011.45-4.349 5.144 5.144 0 014.952-1.326c.353.094.73-.007.989-.266l13.1-13.1c.258-.258.36-.635.265-.988a5.145 5.145 0 011.326-4.952 5.135 5.135 0 014.349-1.45l-1.45 1.45c-.192.192-.3.453-.3.725v2.898c0 .566.459 1.025 1.024 1.025h2.899c.272 0 .532-.108.725-.3l1.45-1.45a5.136 5.136 0 01-1.45 4.348 5.145 5.145 0 01-4.952 1.327 1.025 1.025 0 00-.989.266l-13.1 13.1zm19.663 6.563a3.08 3.08 0 01-4.349 0l-7.342-7.342c-1.038-1.04-1.356-2.851.039-4.309 1.457-1.394 3.27-1.077 4.309-.04l7.342 7.343a3.079 3.079 0 01.001 4.348z"/><path d="M30.58 29.13l-7.242-7.241a1.025 1.025 0 00-1.45 1.449l7.242 7.242a1.025 1.025 0 001.45-1.45z"/></svg><svg viewBox="0 0 26 17" id="up" xmlns="http://www.w3.org/2000/svg"><path fill-rule="evenodd" clip-rule="evenodd" d="M12.62 7.68l-8.78 8.78L0 12.62 12.62 0l12.62 12.62-3.84 3.84-8.78-8.78z"/></svg><svg viewBox="0 0 30 35" id="warranty" xmlns="http://www.w3.org/2000/svg"><path d="M28.688 5.667L15.29.105a1.367 1.367 0 00-1.049 0L.843 5.667C.333 5.88 0 6.377 0 6.93v6.763a22.896 22.896 0 0014.249 21.206c.331.135.702.135 1.033 0a22.896 22.896 0 0014.25-21.206V6.93c0-.552-.333-1.05-.844-1.263zm-1.891 8.026a20.166 20.166 0 01-12.031 18.455A20.167 20.167 0 012.734 13.692v-5.85l12.032-4.994 12.03 4.995v5.85zM13.254 18.3l5.877-5.876a1.367 1.367 0 011.933 1.933l-6.843 6.843c-.534.534-1.4.534-1.933 0l-3.821-3.82a1.367 1.367 0 111.933-1.934l2.854 2.854z"/></svg></svg>