<?xml version="1.0" encoding="UTF-8"?>
<svg id="_Слой_2" data-name="Слой 2" xmlns="http://www.w3.org/2000/svg" viewBox="0 0 443.52 443.52">
  <defs>
    <style>
      .cls-1 {
        fill: #fff;
      }
    </style>
  </defs>
  <g id="warranty">
    <path class="cls-1" d="m407.95,291.11c-27.17,0-53.83-4.25-79.09-12.61-12.37-4.2-27.61-.33-35.15,7.42l-49.88,37.65c-57.82-30.88-93.44-66.48-123.91-123.88l36.53-48.55c9.5-9.5,12.91-23.34,8.82-36.35-8.42-25.56-12.69-52.3-12.65-79.2,0-19.63-15.94-35.6-35.57-35.6H35.57C15.99,0,0,15.97,0,35.6c0,224.91,183.01,407.92,407.95,407.92,19.61,0,35.57-15.97,35.57-35.6v-81.23c0-19.61-15.97-35.57-35.57-35.57h0Z"/>
  </g>
</svg>